<?xml version="1.0" encoding="UTF-8"?>
<!DOCTYPE svg PUBLIC "-//W3C//DTD SVG 1.1//EN" "http://www.w3.org/Graphics/SVG/1.1/DTD/svg11.dtd">
<svg xmlns="http://www.w3.org/2000/svg" version="1.1" width="368px" height="345px" style="shape-rendering:geometricPrecision; text-rendering:geometricPrecision; image-rendering:optimizeQuality; fill-rule:evenodd; clip-rule:evenodd" xmlns:xlink="http://www.w3.org/1999/xlink">
<g><path style="opacity:1" fill="#f0ddd9" d="M -0.5,-0.5 C 122.167,-0.5 244.833,-0.5 367.5,-0.5C 367.5,114.5 367.5,229.5 367.5,344.5C 244.833,344.5 122.167,344.5 -0.5,344.5C -0.5,229.5 -0.5,114.5 -0.5,-0.5 Z"/></g>
<g><path style="opacity:1" fill="#482533" d="M 80.5,51.5 C 83.8291,51.2153 86.8291,51.8819 89.5,53.5C 80.8395,71.8036 72.1728,90.137 63.5,108.5C 63.0431,109.298 62.3764,109.631 61.5,109.5C 58.9108,108.581 56.9108,106.914 55.5,104.5C 64.0722,87.0188 72.4056,69.3522 80.5,51.5 Z"/></g>
<g><path style="opacity:1" fill="#c9340d" d="M 301.5,52.5 C 292.556,71.3872 283.889,90.3872 275.5,109.5C 268.669,104.176 264.669,97.1764 263.5,88.5C 263.5,88.1667 263.5,87.8333 263.5,87.5C 264.644,85.8998 265.811,84.2331 267,82.5C 270.519,74.1346 274.019,65.8013 277.5,57.5C 284.69,51.7965 292.69,50.1299 301.5,52.5 Z"/></g>
<g><path style="opacity:1" fill="#402638" d="M 80.5,51.5 C 72.4056,69.3522 64.0722,87.0188 55.5,104.5C 42.8528,85.9006 45.5195,69.7339 63.5,56C 68.6617,52.5566 74.3284,51.0566 80.5,51.5 Z"/></g>
<g><path style="opacity:1" fill="#4f2631" d="M 89.5,53.5 C 93.6744,53.6586 97.0078,55.3253 99.5,58.5C 89.7819,76.2725 80.7819,94.6059 72.5,113.5C 72.0431,114.298 71.3764,114.631 70.5,114.5C 67.0078,113.59 64.0078,111.924 61.5,109.5C 62.3764,109.631 63.0431,109.298 63.5,108.5C 72.1728,90.137 80.8395,71.8036 89.5,53.5 Z"/></g>
<g><path style="opacity:1" fill="#d5360a" d="M 301.5,52.5 C 307.963,53.0646 313.296,55.7312 317.5,60.5C 308.336,78.1649 299.669,96.1649 291.5,114.5C 294.642,115.167 297.642,115.834 300.5,116.5C 291.125,117.594 282.792,115.26 275.5,109.5C 283.889,90.3872 292.556,71.3872 301.5,52.5 Z"/></g>
<g><path style="opacity:1" fill="#be3412" d="M 277.5,57.5 C 274.019,65.8013 270.519,74.1346 267,82.5C 265.811,84.2331 264.644,85.8998 263.5,87.5C 263.5,85.8333 263.5,84.1667 263.5,82.5C 257.167,82.5 250.833,82.5 244.5,82.5C 245.5,79.8333 246.5,77.1667 247.5,74.5C 253.206,74.8288 258.872,74.4954 264.5,73.5C 266.959,66.5489 271.292,61.2156 277.5,57.5 Z"/></g>
<g><path style="opacity:1" fill="#56262f" d="M 99.5,58.5 C 102.5,59.5 104.5,61.5 105.5,64.5C 97.3606,82.1122 88.6939,99.4455 79.5,116.5C 78.6703,125.324 78.1703,134.324 78,143.5C 75.7263,147.714 73.7263,152.047 72,156.5C 71.8195,153.305 71.3195,150.305 70.5,147.5C 70.5,136.5 70.5,125.5 70.5,114.5C 71.3764,114.631 72.0431,114.298 72.5,113.5C 80.7819,94.6059 89.7819,76.2725 99.5,58.5 Z"/></g>
<g><path style="opacity:1" fill="#5e282d" d="M 105.5,64.5 C 108.362,67.0433 110.362,70.21 111.5,74C 117.825,74.4995 124.158,74.6662 130.5,74.5C 129.5,77.1667 128.5,79.8333 127.5,82.5C 122.5,82.5 117.5,82.5 112.5,82.5C 112.5,83.8333 112.5,85.1667 112.5,86.5C 109.732,105.407 98.7315,115.407 79.5,116.5C 88.6939,99.4455 97.3606,82.1122 105.5,64.5 Z"/></g>
<g><path style="opacity:1" fill="#e23705" d="M 317.5,60.5 C 326.566,68.8738 329.733,79.2071 327,91.5C 324.656,101.842 318.656,109.176 309,113.5C 308.502,116.817 308.335,120.15 308.5,123.5C 306.103,128.627 303.436,133.627 300.5,138.5C 300.5,131.167 300.5,123.833 300.5,116.5C 297.642,115.834 294.642,115.167 291.5,114.5C 299.669,96.1649 308.336,78.1649 317.5,60.5 Z"/></g>
<g><path style="opacity:1" fill="#792a23" d="M 130.5,74.5 C 143.833,74.5 157.167,74.5 170.5,74.5C 169.501,77.1618 168.501,79.8284 167.5,82.5C 154.167,82.5 140.833,82.5 127.5,82.5C 128.5,79.8333 129.5,77.1667 130.5,74.5 Z"/></g>
<g><path style="opacity:1" fill="#922d1c" d="M 170.5,74.5 C 183.833,74.5 197.167,74.5 210.5,74.5C 210.06,77.3798 209.06,80.0465 207.5,82.5C 194.167,82.5 180.833,82.5 167.5,82.5C 168.501,79.8284 169.501,77.1618 170.5,74.5 Z"/></g>
<g><path style="opacity:1" fill="#ab3015" d="M 210.5,74.5 C 222.833,74.5 235.167,74.5 247.5,74.5C 246.5,77.1667 245.5,79.8333 244.5,82.5C 232.167,82.5 219.833,82.5 207.5,82.5C 209.06,80.0465 210.06,77.3798 210.5,74.5 Z"/></g>
<g><path style="opacity:1" fill="#d0988d" d="M 127.5,82.5 C 140.833,82.5 154.167,82.5 167.5,82.5C 180.833,82.5 194.167,82.5 207.5,82.5C 219.833,82.5 232.167,82.5 244.5,82.5C 250.833,82.5 257.167,82.5 263.5,82.5C 263.5,84.1667 263.5,85.8333 263.5,87.5C 263.5,87.8333 263.5,88.1667 263.5,88.5C 262.549,87.0813 262.216,85.4147 262.5,83.5C 212.833,83.5 163.167,83.5 113.5,83.5C 113.737,84.791 113.404,85.791 112.5,86.5C 112.5,85.1667 112.5,83.8333 112.5,82.5C 117.5,82.5 122.5,82.5 127.5,82.5 Z"/></g>
<g><path style="opacity:1" fill="#f0ddd8" d="M 263.5,88.5 C 264.669,97.1764 268.669,104.176 275.5,109.5C 282.792,115.26 291.125,117.594 300.5,116.5C 300.5,123.833 300.5,131.167 300.5,138.5C 300.5,181.167 300.5,223.833 300.5,266.5C 275.813,266.52 263.48,278.854 263.5,303.5C 245.167,303.5 226.833,303.5 208.5,303.5C 192.5,303.5 176.5,303.5 160.5,303.5C 144.5,303.5 128.5,303.5 112.5,303.5C 113.999,294.009 111.666,285.676 105.5,278.5C 103.781,275.781 101.447,273.781 98.5,272.5C 94.7629,269.473 90.4295,267.807 85.5,267.5C 83.7354,266.539 81.7354,266.205 79.5,266.5C 79.5,216.5 79.5,166.5 79.5,116.5C 98.7315,115.407 109.732,105.407 112.5,86.5C 113.404,85.791 113.737,84.791 113.5,83.5C 163.167,83.5 212.833,83.5 262.5,83.5C 262.216,85.4147 262.549,87.0813 263.5,88.5 Z"/></g>
<g><path style="opacity:1" fill="#902d1d" d="M 187.5,102.5 C 191.167,105.5 194.5,108.833 197.5,112.5C 178.282,152.934 159.616,193.601 141.5,234.5C 138.167,231.833 135.167,228.833 132.5,225.5C 134.683,221.443 136.183,217.11 137,212.5C 154.672,176.159 171.506,139.493 187.5,102.5 Z"/></g>
<g><path style="opacity:1" fill="#832d23" d="M 187.5,102.5 C 171.506,139.493 154.672,176.159 137,212.5C 136.183,217.11 134.683,221.443 132.5,225.5C 129.167,222.833 126.167,219.833 123.5,216.5C 138.026,185.59 152.359,154.59 166.5,123.5C 173.167,116.167 180.167,109.167 187.5,102.5 Z"/></g>
<g><path style="opacity:1" fill="#9d2f19" d="M 197.5,112.5 C 200.833,115.167 203.833,118.167 206.5,121.5C 187.282,161.934 168.616,202.601 150.5,243.5C 147.167,240.833 144.167,237.833 141.5,234.5C 159.616,193.601 178.282,152.934 197.5,112.5 Z"/></g>
<g><path style="opacity:1" fill="#7b2c26" d="M 166.5,123.5 C 152.359,154.59 138.026,185.59 123.5,216.5C 121.833,215.5 120.5,214.167 119.5,212.5C 130.682,187.128 142.348,161.962 154.5,137C 154.272,136.601 153.938,136.435 153.5,136.5C 157.5,131.833 161.833,127.5 166.5,123.5 Z"/></g>
<g><path style="opacity:1" fill="#a93015" d="M 206.5,121.5 C 209.5,123.833 212.167,126.5 214.5,129.5C 195.833,170.167 177.167,210.833 158.5,251.5C 155.5,249.167 152.833,246.5 150.5,243.5C 168.616,202.601 187.282,161.934 206.5,121.5 Z"/></g>
<g><path style="opacity:1" fill="#b53112" d="M 214.5,129.5 C 217.833,132.167 220.833,135.167 223.5,138.5C 205.03,179.239 186.363,219.906 167.5,260.5C 164.167,257.833 161.167,254.833 158.5,251.5C 177.167,210.833 195.833,170.167 214.5,129.5 Z"/></g>
<g><path style="opacity:1" fill="#c2330e" d="M 223.5,138.5 C 226.833,141.167 229.833,144.167 232.5,147.5C 213.282,187.934 194.616,228.601 176.5,269.5C 173.167,266.833 170.167,263.833 167.5,260.5C 186.363,219.906 205.03,179.239 223.5,138.5 Z"/></g>
<g><path style="opacity:1" fill="#f03801" d="M 308.5,123.5 C 308.333,172.168 308.5,220.834 309,269.5C 327.972,280.758 332.638,296.424 323,316.5C 311.048,331.862 296.215,335.362 278.5,327C 273.258,323.592 269.258,319.092 266.5,313.5C 246.845,312.5 227.178,312.167 207.5,312.5C 209.867,310.802 211.534,308.469 212.5,305.5C 229.662,304.833 246.662,304.167 263.5,303.5C 263.48,278.854 275.813,266.52 300.5,266.5C 300.5,223.833 300.5,181.167 300.5,138.5C 303.436,133.627 306.103,128.627 308.5,123.5 Z"/></g>
<g><path style="opacity:1" fill="#722c29" d="M 153.5,136.5 C 153.938,136.435 154.272,136.601 154.5,137C 142.348,161.962 130.682,187.128 119.5,212.5C 116.5,210.167 113.833,207.5 111.5,204.5C 117.746,189.506 124.412,174.673 131.5,160C 131.272,159.601 130.938,159.435 130.5,159.5C 137.833,151.5 145.5,143.833 153.5,136.5 Z"/></g>
<g><path style="opacity:1" fill="#cf340b" d="M 232.5,147.5 C 235.833,150.167 238.833,153.167 241.5,156.5C 222.282,196.934 203.616,237.601 185.5,278.5C 182.167,275.833 179.167,272.833 176.5,269.5C 194.616,228.601 213.282,187.934 232.5,147.5 Z"/></g>
<g><path style="opacity:1" fill="#6a2e30" d="M 130.5,159.5 C 130.938,159.435 131.272,159.601 131.5,160C 124.412,174.673 117.746,189.506 111.5,204.5C 106.854,200.521 102.521,196.188 98.5,191.5C 108.854,180.479 119.521,169.812 130.5,159.5 Z"/></g>
<g><path style="opacity:1" fill="#dd3505" d="M 241.5,156.5 C 246.167,160.5 250.5,164.833 254.5,169.5C 241.893,196.381 229.559,223.381 217.5,250.5C 208.036,260.465 198.369,270.298 188.5,280C 187.002,280.585 186.002,280.085 185.5,278.5C 203.616,237.601 222.282,196.934 241.5,156.5 Z"/></g>
<g><path style="opacity:1" fill="#6c2f30" d="M 79.5,116.5 C 79.5,166.5 79.5,216.5 79.5,266.5C 78.5046,254.011 78.1713,241.344 78.5,228.5C 78.6666,214.829 78.4999,201.163 78,187.5C 76.2737,191.953 74.2737,196.286 72,200.5C 71.8019,198.618 71.3019,196.952 70.5,195.5C 70.5,179.5 70.5,163.5 70.5,147.5C 71.3195,150.305 71.8195,153.305 72,156.5C 73.7263,152.047 75.7263,147.714 78,143.5C 78.1703,134.324 78.6703,125.324 79.5,116.5 Z"/></g>
<g><path style="opacity:1" fill="#ee3700" d="M 254.5,169.5 C 262.146,176.479 269.479,183.812 276.5,191.5C 257.146,211.521 237.479,231.188 217.5,250.5C 229.559,223.381 241.893,196.381 254.5,169.5 Z"/></g>
<g><path style="opacity:1" fill="#732b27" d="M 78.5,228.5 C 76.3793,232.741 74.2126,237.075 72,241.5C 71.8297,250.676 71.3297,259.676 70.5,268.5C 70.5,244.167 70.5,219.833 70.5,195.5C 71.3019,196.952 71.8019,198.618 72,200.5C 74.2737,196.286 76.2737,191.953 78,187.5C 78.4999,201.163 78.6666,214.829 78.5,228.5 Z"/></g>
<g><path style="opacity:1" fill="#7e2c24" d="M 78.5,228.5 C 78.1713,241.344 78.5046,254.011 79.5,266.5C 81.7354,266.205 83.7354,266.539 85.5,267.5C 83.5328,267.261 81.6995,267.594 80,268.5C 71.8747,285.747 64.0413,303.08 56.5,320.5C 43.737,304.258 44.737,288.758 59.5,274C 62.9099,271.628 66.5766,269.795 70.5,268.5C 71.3297,259.676 71.8297,250.676 72,241.5C 74.2126,237.075 76.3793,232.741 78.5,228.5 Z"/></g>
<g><path style="opacity:1" fill="#8a2c1f" d="M 85.5,267.5 C 90.4295,267.807 94.7629,269.473 98.5,272.5C 88.9842,291.535 79.9842,310.868 71.5,330.5C 65.406,328.728 60.406,325.394 56.5,320.5C 64.0413,303.08 71.8747,285.747 80,268.5C 81.6995,267.594 83.5328,267.261 85.5,267.5 Z"/></g>
<g><path style="opacity:1" fill="#922d1d" d="M 98.5,272.5 C 101.447,273.781 103.781,275.781 105.5,278.5C 96.384,295.735 88.0507,313.402 80.5,331.5C 77.4552,331.492 74.4552,331.159 71.5,330.5C 79.9842,310.868 88.9842,291.535 98.5,272.5 Z"/></g>
<g><path style="opacity:1" fill="#9c301c" d="M 105.5,278.5 C 111.666,285.676 113.999,294.009 112.5,303.5C 128.5,303.5 144.5,303.5 160.5,303.5C 151.348,304.494 142.015,304.827 132.5,304.5C 125.833,304.5 119.167,304.5 112.5,304.5C 112.414,306.677 111.747,308.677 110.5,310.5C 114.647,311.167 118.647,311.834 122.5,312.5C 114.266,310.603 108.432,313.27 105,320.5C 98.3926,327.54 90.2259,331.206 80.5,331.5C 88.0507,313.402 96.384,295.735 105.5,278.5 Z"/></g>
<g><path style="opacity:1" fill="#ab3116" d="M 132.5,304.5 C 131.513,306.473 130.513,308.473 129.5,310.5C 134.985,311.167 140.319,311.833 145.5,312.5C 137.833,312.5 130.167,312.5 122.5,312.5C 118.647,311.834 114.647,311.167 110.5,310.5C 111.747,308.677 112.414,306.677 112.5,304.5C 119.167,304.5 125.833,304.5 132.5,304.5 Z"/></g>
<g><path style="opacity:1" fill="#c43815" d="M 160.5,303.5 C 176.5,303.5 192.5,303.5 208.5,303.5C 196.66,304.167 184.66,304.833 172.5,305.5C 171.627,307.413 170.627,309.247 169.5,311C 175.348,311.173 181.015,311.673 186.5,312.5C 172.833,312.5 159.167,312.5 145.5,312.5C 140.319,311.833 134.985,311.167 129.5,310.5C 130.513,308.473 131.513,306.473 132.5,304.5C 142.015,304.827 151.348,304.494 160.5,303.5 Z"/></g>
<g><path style="opacity:1" fill="#da3a0d" d="M 208.5,303.5 C 226.833,303.5 245.167,303.5 263.5,303.5C 246.662,304.167 229.662,304.833 212.5,305.5C 211.534,308.469 209.867,310.802 207.5,312.5C 200.5,312.5 193.5,312.5 186.5,312.5C 181.015,311.673 175.348,311.173 169.5,311C 170.627,309.247 171.627,307.413 172.5,305.5C 184.66,304.833 196.66,304.167 208.5,303.5 Z"/></g>
</svg>
